<svg width="241" height="48" viewBox="0 0 241 48" fill="none" xmlns="http://www.w3.org/2000/svg">
<path d="M50 24.1698C50 30.6279 55.056 35.5564 61.7265 35.5564C66.4001 35.5564 70.3939 33.0497 72.2633 28.5885L66.9949 26.7616C66.0177 29.0134 64.0633 30.3305 61.7265 30.3305C58.455 30.3305 55.9482 27.6963 55.9482 24.1698C55.9482 20.6859 58.455 18.0517 61.7265 18.0517C64.0633 18.0517 66.0177 19.3263 66.9949 21.5781L72.2633 19.7512C70.3939 15.29 66.4001 12.7833 61.7265 12.7833C55.056 12.7833 50 17.7118 50 24.1698Z" fill="#3A46CC"/>
<path d="M83.9351 29.2683L78.0293 13.2081H71.8262L80.791 35.8963L77.7319 43.629H83.5527L95.6191 13.2081H89.7983L83.9351 29.2683Z" fill="#3A46CC"/>
<path d="M93.655 31.7326C93.655 33.7295 95.3545 35.5139 97.4789 35.5139C99.5183 35.5139 101.26 33.7295 101.26 31.7326C101.26 29.6082 99.5183 27.9087 97.4789 27.9087C95.3545 27.9087 93.655 29.6082 93.655 31.7326Z" fill="#252E8F"/>
<path d="M117.364 12.7833C114.475 12.7833 112.053 14.0579 110.524 16.0548V3.69098H104.788V35.1316H110.524V22.8527C110.524 20.0061 112.648 18.0092 115.495 18.0092C118.426 18.0092 120.466 20.0061 120.466 22.8527V35.1316H126.201V21.833C126.201 16.6071 122.632 12.7833 117.364 12.7833Z" fill="#3A46CC"/>
<path d="M140.972 12.7833C134.429 12.7833 129.458 17.7118 129.458 24.1698C129.458 30.6279 134.514 35.5564 141.185 35.5564C145.943 35.5564 149.597 33.1347 151.509 29.6932L146.793 27.5688C145.731 29.4808 143.734 30.6279 141.354 30.6279C138.338 30.6279 136.129 28.801 135.364 26.2092H152.274C153.463 18.9014 148.322 12.7833 140.972 12.7833ZM140.972 17.7118C143.691 17.7118 145.773 19.3688 146.538 21.833H135.449C136.256 19.3688 138.38 17.7118 140.972 17.7118Z" fill="#3A46CC"/>
<path d="M161.763 13.2081H156.028V35.1316H161.763V22.8527C161.763 19.0714 165.332 16.947 169.963 18.5615V13.1232C166.734 12.1035 163.633 13.5055 161.763 16.0548V13.2081Z" fill="#3A46CC"/>
<path d="M170.6 24.1698C170.6 30.6279 175.656 35.5564 182.327 35.5564C188.997 35.5564 194.053 30.6279 194.053 24.1698C194.053 17.7118 188.997 12.7833 182.327 12.7833C175.656 12.7833 170.6 17.7118 170.6 24.1698ZM176.549 24.1698C176.549 20.6859 179.055 18.0517 182.327 18.0517C185.641 18.0517 188.105 20.6859 188.105 24.1698C188.105 27.6963 185.641 30.3305 182.327 30.3305C179.055 30.3305 176.549 27.6963 176.549 24.1698Z" fill="#3A46CC"/>
<path d="M208.079 12.7833C201.536 12.7833 196.565 17.7118 196.565 24.1698C196.565 30.6279 201.621 35.5564 208.291 35.5564C213.05 35.5564 216.704 33.1347 218.616 29.6932L213.9 27.5688C212.837 29.4808 210.841 30.6279 208.461 30.6279C205.445 30.6279 203.235 28.801 202.471 26.2092H219.381C220.57 18.9014 215.429 12.7833 208.079 12.7833ZM208.079 17.7118C210.798 17.7118 212.88 19.3688 213.645 21.833H202.556C203.363 19.3688 205.487 17.7118 208.079 17.7118Z" fill="#3A46CC"/>
<path d="M221.545 29.2258C222.182 33.0497 225.751 35.5564 231.19 35.5564C236.543 35.5564 240.834 32.5823 240.834 28.631C240.834 19.7512 227.961 23.6175 227.961 19.4538C227.961 18.1791 229.363 17.3294 231.19 17.3294C233.229 17.3294 234.546 18.3066 234.844 20.3035L240.537 19.1139C239.9 15.29 236.416 12.7833 231.19 12.7833C226.049 12.7833 222.182 15.7574 222.182 19.7087C222.182 28.4611 235.056 24.5947 235.056 28.716C235.056 29.9906 233.569 31.0103 231.19 31.0103C228.938 31.0103 227.536 30.0331 227.281 28.0362L221.545 29.2258Z" fill="#3A46CC"/>
<path fill-rule="evenodd" clip-rule="evenodd" d="M20.9389 0.284849L20.9374 0.283868C20.6541 0.0940265 20.3269 -0.000484469 20 0.000371979V47.9957C20.1996 47.9962 20.3993 47.9612 20.589 47.8907L20.5937 47.889L20.6047 47.8848L20.6431 47.8703C20.6759 47.8578 20.7229 47.8399 20.7832 47.8165C20.9039 47.7696 21.078 47.701 21.2989 47.6111C21.7405 47.4316 22.3698 47.167 23.1324 46.8226C24.6548 46.1351 26.7219 45.1233 28.8927 43.8275C31.0582 42.5349 33.3642 40.9375 35.3417 39.07C37.3099 37.2112 39.0356 35.0071 39.9113 32.4862C39.9727 32.3095 40.0041 32.1237 40.0041 31.9366V9.15556C40.0041 8.35608 39.4391 7.66805 38.6549 7.51255C33.7523 6.54047 29.3131 4.73204 26.0849 3.15357C24.4753 2.36647 23.1775 1.64188 22.2864 1.11684C21.8411 0.854463 21.498 0.642325 21.2691 0.497659C21.1547 0.425337 21.0688 0.369918 21.013 0.333556L20.9521 0.293594L20.9389 0.284849Z" fill="#3A46CC"/>
<path d="M19.4137 47.8883L19.4149 47.8888C19.6032 47.9595 19.8016 47.9951 20 47.9957V0.000371979C19.676 0.00122063 19.3523 0.0957073 19.0715 0.283868L19.0569 0.293594L18.9959 0.333556C18.9402 0.369918 18.8543 0.425337 18.7398 0.497659C18.5109 0.642325 18.1679 0.854463 17.7226 1.11684C16.8315 1.64188 15.5337 2.36647 13.924 3.15357C10.6959 4.73204 6.25665 6.54047 1.3541 7.51255C0.569889 7.66805 0.00488281 8.35608 0.00488281 9.15556V31.9366C0.00488281 32.1265 0.0371892 32.3151 0.10042 32.4942C0.985475 35.0012 2.71446 37.1977 4.68272 39.0527C6.66064 40.9169 8.96429 42.5149 11.1269 43.8099C13.2949 45.1082 15.3581 46.1239 16.8774 46.8147C17.6384 47.1608 18.2663 47.4268 18.7069 47.6075C18.9272 47.6979 19.101 47.7669 19.2213 47.8141C19.2815 47.8377 19.3283 47.8558 19.361 47.8683L19.3993 47.8829L19.4137 47.8883Z" fill="#252E8F"/>
<path fill-rule="evenodd" clip-rule="evenodd" d="M20.007 44.52C19.9974 44.516 19.9876 44.512 19.9777 44.508C19.5712 44.3413 18.9822 44.0918 18.2639 43.7652C16.8246 43.1107 14.8793 42.1524 12.8478 40.9359C10.8111 39.7162 8.72448 38.2588 6.98019 36.6148C5.30911 35.0399 4.0273 33.3639 3.35469 31.6363V10.5096C8.08599 9.42175 12.2979 7.67766 15.3954 6.16306C17.0943 5.33233 18.4689 4.56526 19.423 4.00309C19.6384 3.87615 19.8326 3.75958 20.0043 3.65499C20.176 3.75958 20.3702 3.87615 20.5856 4.00309C21.5397 4.56526 22.9143 5.33233 24.6132 6.16306C27.7107 7.67766 31.9226 9.42175 36.6539 10.5096V31.6409C35.9887 33.3772 34.711 35.0576 33.0414 36.6344C31.2999 38.2791 29.2135 39.7344 27.1754 40.951C25.1426 42.1645 23.1949 43.1186 21.7534 43.7696C21.034 44.0945 20.444 44.3423 20.0369 44.5079C20.0268 44.512 20.0169 44.516 20.007 44.52ZM19.361 47.8683C19.3283 47.8558 19.2815 47.8377 19.2213 47.8141C19.101 47.7669 18.9272 47.6979 18.7069 47.6075C18.2663 47.4268 17.6384 47.1608 16.8774 46.8147C15.3581 46.1239 13.2949 45.1082 11.1269 43.8099C8.96429 42.5149 6.66064 40.9169 4.68272 39.0527C2.71446 37.1977 0.985475 35.0012 0.10042 32.4942C0.0371892 32.3151 0.00488281 32.1265 0.00488281 31.9366V9.15556C0.00488281 8.35608 0.569889 7.66805 1.3541 7.51255C6.25665 6.54047 10.6959 4.73204 13.924 3.15357C15.5337 2.36647 16.8315 1.64188 17.7226 1.11684C18.1679 0.854463 18.5109 0.642325 18.7398 0.497659C18.8543 0.425337 18.9402 0.369918 18.9959 0.333556L19.0569 0.293594L19.0715 0.283868C19.3523 0.0957073 19.676 0.00122063 20 0.000371979C20.3269 -0.000484469 20.6541 0.0940265 20.9374 0.283868L20.9389 0.284849L20.9521 0.293594L21.013 0.333556C21.0688 0.369918 21.1547 0.425337 21.2691 0.497659C21.498 0.642325 21.8411 0.854463 22.2864 1.11684C23.1775 1.64188 24.4753 2.36647 26.0849 3.15357C29.3131 4.73204 33.7523 6.54047 38.6549 7.51255C39.4391 7.66805 40.0041 8.35608 40.0041 9.15556V31.9366C40.0041 32.1237 39.9727 32.3095 39.9113 32.4862C39.0356 35.0071 37.3099 37.2112 35.3417 39.07C33.3642 40.9375 31.0582 42.5349 28.8927 43.8275C26.7219 45.1233 24.6548 46.1351 23.1324 46.8226C22.3698 47.167 21.7405 47.4316 21.2989 47.6111C21.078 47.701 20.9039 47.7696 20.7832 47.8165C20.7229 47.8399 20.6759 47.8578 20.6431 47.8703L20.6047 47.8848L20.5937 47.889L20.589 47.8907C20.2107 48.0313 19.7927 48.0306 19.4149 47.8888L19.4137 47.8883L19.3993 47.8829L19.361 47.8683Z" fill="#6470F3"/>
</svg>
